<?xml version="1.0" standalone="no"?>
<!DOCTYPE svg PUBLIC "-//W3C//DTD SVG 20010904//EN"
 "http://www.w3.org/TR/2001/REC-SVG-20010904/DTD/svg10.dtd">
<svg version="1.0" xmlns="http://www.w3.org/2000/svg"
 width="366.000000pt" height="366.000000pt" viewBox="0 0 366.000000 366.000000"
 preserveAspectRatio="xMidYMid meet">
<metadata>
Created by potrace 1.14, written by Peter Selinger 2001-2017
</metadata>
<g transform="translate(0.000000,366.000000) scale(0.100000,-0.100000)"
fill="#000000" stroke="none">
<path d="M2018 2892 c-21 -15 -37 -35 -38 -45 0 -26 113 -249 146 -288 8 -8
14 -18 14 -21 0 -3 25 -51 56 -107 31 -56 53 -105 50 -109 -4 -3 -21 -11 -38
-17 -17 -5 -35 -18 -40 -27 -4 -10 -12 -26 -16 -35 -11 -22 -67 -36 -242 -58
-14 -2 -45 -9 -70 -15 -25 -6 -92 -15 -148 -20 -57 -5 -109 -14 -116 -19 -15
-13 -69 26 -107 75 -29 38 -106 69 -147 59 -60 -15 -100 -61 -116 -136 -6 -28
-17 -33 -92 -45 -21 -3 -43 -7 -49 -7 -11 -2 -22 36 -54 173 -38 166 -39 167
-70 180 -18 7 -43 9 -63 5 -39 -8 -81 -33 -74 -43 3 -5 1 -14 -3 -21 -5 -7 -3
-38 4 -67 7 -30 8 -54 4 -54 -5 0 -9 -7 -9 -15 0 -23 -19 -18 -29 8 -8 21 -63
104 -99 149 -42 53 -197 198 -211 198 -5 0 -16 10 -27 21 -10 12 -28 25 -39
30 -11 5 -36 19 -55 30 -123 74 -145 75 -174 10 -24 -52 -15 -73 42 -102 76
-38 193 -127 296 -224 42 -39 106 -123 106 -138 0 -8 6 -17 13 -20 6 -2 25
-29 42 -60 l29 -55 -34 -50 c-30 -44 -41 -51 -77 -57 -46 -7 -83 -42 -83 -79
0 -12 14 -68 30 -126 17 -58 33 -118 36 -135 3 -16 12 -55 20 -85 9 -30 22
-84 30 -119 8 -36 16 -67 19 -69 2 -3 -7 -14 -22 -25 -23 -19 -25 -24 -19 -75
8 -64 32 -110 60 -114 12 -2 48 2 80 9 34 8 63 10 68 5 5 -5 11 -28 13 -52 10
-106 42 -177 116 -251 71 -72 159 -110 253 -111 122 -1 202 30 284 110 62 61
98 131 113 219 10 59 9 78 -8 146 -10 42 -19 77 -18 77 8 0 340 72 344 74 4 3
27 7 51 11 25 3 81 15 125 25 149 34 477 102 480 98 1 -1 -4 -38 -13 -81 -13
-67 -13 -89 -2 -145 13 -68 43 -136 73 -166 9 -9 20 -23 24 -30 13 -22 106
-82 155 -101 26 -9 75 -17 110 -18 66 0 191 27 196 43 2 6 10 10 18 10 8 0 17
7 20 15 4 8 11 15 16 15 14 0 70 60 96 102 78 127 63 335 -32 443 -29 34 -32
45 -12 45 8 0 17 12 20 26 6 23 10 25 34 18 49 -14 82 -5 132 33 73 57 101
106 99 171 -3 64 -29 127 -57 134 -14 4 -22 17 -27 47 -4 22 -7 43 -6 46 0 2
-5 19 -10 37 -5 18 -16 67 -25 108 -21 98 -43 130 -92 130 -21 0 -48 -7 -60
-16 -21 -14 -22 -14 -22 5 0 14 -8 22 -27 27 -16 3 -44 14 -63 24 -29 14 -56
17 -155 15 -112 -2 -281 -24 -350 -45 -63 -19 -107 -21 -131 -5 -13 9 -24 19
-24 24 0 5 -25 53 -55 106 -30 54 -55 101 -55 104 0 4 -9 17 -21 29 -11 12
-26 35 -32 50 -7 15 -32 60 -56 100 -34 59 -51 78 -84 93 -55 24 -74 23 -119
-9z m925 -1018 c13 -4 57 -78 62 -104 0 -3 7 -16 14 -29 7 -13 9 -21 4 -18 -5
3 -36 8 -70 12 -85 8 -183 -16 -246 -61 -27 -19 -50 -34 -52 -32 -2 2 1 38 5
82 11 92 23 109 88 125 26 7 61 16 77 20 39 10 95 12 118 5z"/>
</g>
</svg>
